<?xml version="1.0" encoding="utf-8"?>
<svg xmlns="http://www.w3.org/2000/svg" xmlns:xlink="http://www.w3.org/1999/xlink" style="margin: auto; background: rgb(255, 255, 255); display: block; z-index: 1; position: relative; shape-rendering: auto;" width="1000" height="600" preserveAspectRatio="xMidYMid" viewBox="0 0 1000 600">
<g transform="translate(500,300) scale(1,1) translate(-500,-300)"><g transform="translate(850,300) scale(100)" opacity="0.4">
  <path d="M3.395 0 C3.395 0.8049999999999999 3.5245215806429013 1.1053495499535266 3.1220215806429015 1.8024999999999998 S2.3946504500464734 2.5376562458481686 1.6975000000000005 2.940156245848169 S0.8050000000000002 3.605 2.2074258554631043e-16 3.605 S-1.0003495499535262 3.3426562458481692 -1.6974999999999993 2.9401562458481694 S-2.7195215806429003 2.499650450046474 -3.1220215806429006 1.802500000000001 S-3.395 0.8050000000000004 -3.395 4.157675883105264e-16 S-3.5245215806429018 -1.1053495499535257 -3.122021580642902 -1.8024999999999989 S-2.3946504500464743 -2.537656245848168 -1.6975000000000016 -2.9401562458481685 S-0.8050000000000006 -3.605 -6.622277566389312e-16 -3.605 S1.0003495499535244 -3.34265624584817 1.6974999999999978 -2.9401562458481707 S2.7195215806429 -2.4996504500464742 3.1220215806429 -1.8025000000000015 S3.395 -0.8050000000000007 3.395 -8.315351766210528e-16" fill="#c1ddff" stroke-width="0">
    <animateTransform attributeName="transform" type="rotate" dur="16.666666666666664s" repeatCount="indefinite" values="0;60"></animateTransform>
  </path>
</g><g transform="translate(920,300) scale(100)" opacity="0.4">
  <path d="M4.074 0 C4.074 0.966 4.229425896771482 1.326419459944232 3.7464258967714823 2.163 S2.873580540055768 3.0451874950178026 2.0370000000000004 3.5281874950178027 S0.9660000000000002 4.3260000000000005 2.6489110265557254e-16 4.3260000000000005 S-1.2004194599442313 4.011187495017803 -2.036999999999999 3.528187495017803 S-3.263425896771481 2.999580540055769 -3.7464258967714814 2.1630000000000016 S-4.074 0.9660000000000004 -4.074 4.989211059726317e-16 S-4.229425896771483 -1.3264194599442312 -3.7464258967714827 -2.162999999999999 S-2.8735805400557695 -3.0451874950178017 -2.0370000000000017 -3.5281874950178023 S-0.9660000000000007 -4.3260000000000005 -7.946733079667176e-16 -4.3260000000000005 S1.200419459944229 -4.011187495017804 2.0369999999999973 -3.5281874950178045 S3.2634258967714804 -2.9995805400557694 3.746425896771481 -2.163000000000002 S4.074 -0.966000000000001 4.074 -9.978422119452634e-16" fill="#c1ddff" stroke-width="0">
    <animateTransform attributeName="transform" type="rotate" dur="8.333333333333332s" repeatCount="indefinite" values="0;60"></animateTransform>
  </path>
</g></g>
</svg>