<?xml version="1.0" encoding="utf-8"?>
<svg xmlns="http://www.w3.org/2000/svg" xmlns:xlink="http://www.w3.org/1999/xlink" style="margin: auto; background: none; display: block; z-index: 1; position: relative; shape-rendering: auto;" width="988" height="482" preserveAspectRatio="xMidYMid" viewBox="0 0 988 482">
<g transform="translate(494,241) scale(1,1) translate(-494,-241)"><g transform="translate(839.8,241) scale(100)" opacity="0.4">
  <path d="M3.3542599999999996 0 C3.3542599999999996 0.7953399999999998 3.4822273216751864 1.0920853553540844 3.0845573216751867 1.7808699999999997 S2.3659146446459154 2.5072043708979903 1.6771300000000002 2.9048743708979905 S0.79534 3.56174 2.1809367451975468e-16 3.56174 S-0.9883453553540837 3.3025443708979907 -1.6771299999999991 2.904874370897991 S-2.6868873216751856 2.4696546446459164 -3.084557321675186 1.780870000000001 S-3.3542599999999996 0.7953400000000003 -3.3542599999999996 4.1077837725080006e-16 S-3.482227321675187 -1.0920853553540837 -3.084557321675187 -1.780869999999999 S-2.3659146446459163 -2.50720437089799 -1.6771300000000013 -2.90487437089799 S-0.7953400000000005 -3.56174 -6.5428102355926405e-16 -3.56174 S0.988345355354082 -3.3025443708979916 1.6771299999999976 -2.9048743708979923 S2.686887321675185 -2.4696546446459164 3.0845573216751854 -1.7808700000000015 S3.3542599999999996 -0.7953400000000006 3.3542599999999996 -8.215567545016001e-16" fill="#c1ddff" stroke-width="0">
    <animateTransform attributeName="transform" type="rotate" dur="10s" repeatCount="indefinite" values="0;60"></animateTransform>
  </path>
</g><g transform="translate(908.9599999999999,241) scale(100)" opacity="0.4">
  <path d="M4.025111999999999 0 C4.025111999999999 0.9544079999999998 4.178672786010224 1.3105024264249012 3.7014687860102238 2.1370439999999995 S2.8390975735750983 3.0086452450775885 2.012556 3.4858492450775884 S0.954408 4.274088 2.6171240942370563e-16 4.274088 S-1.1860144264249004 3.9630532450775884 -2.0125559999999987 3.485849245077589 S-3.2242647860102225 2.9635855735750996 -3.701468786010223 2.1370440000000013 S-4.025111999999999 0.9544080000000003 -4.025111999999999 4.9293405270096e-16 S-4.178672786010225 -1.3105024264249001 -3.7014687860102247 -2.1370439999999986 S-2.8390975735750996 -3.0086452450775876 -2.0125560000000013 -3.485849245077588 S-0.9544080000000006 -4.274088 -7.851372282711168e-16 -4.274088 S1.1860144264248982 -3.9630532450775897 2.012555999999997 -3.48584924507759 S3.224264786010222 -2.9635855735750996 3.7014687860102224 -2.1370440000000017 S4.025111999999999 -0.9544080000000008 4.025111999999999 -9.8586810540192e-16" fill="#c1ddff" stroke-width="0">
    <animateTransform attributeName="transform" type="rotate" dur="5s" repeatCount="indefinite" values="0;60"></animateTransform>
  </path>
</g></g>
</svg>