<?xml version="1.0" encoding="utf-8"?>
<svg xmlns="http://www.w3.org/2000/svg" xmlns:xlink="http://www.w3.org/1999/xlink" style="margin: auto; background: rgb(255, 255, 255); display: block; z-index: 1; position: relative; shape-rendering: auto; animation-play-state: running; animation-delay: 0s;" width="1000" height="600" preserveAspectRatio="xMidYMid" viewBox="0 0 1000 600">
<g transform="translate(500,300) scale(1,1) translate(-500,-300)" style="animation-play-state: running; animation-delay: 0s;"><g transform="translate(850,300) scale(100)" opacity="0.4" style="animation-play-state: running; animation-delay: 0s;">
  <path d="M3.395 0 C3.395 0.6999999999999998 3.3279559413264166 1.5526539384519027 2.9165062647216855 2.118965834514366 S1.714852257309554 3.0125249767595834 1.0491126959029466 3.2288368728220465 S-0.4482667033150777 3.644870637306492 -1.114006264721685 3.428558741244029 S-2.335163019298215 2.5618428275954095 -2.746612695902946 1.9955309315329466 S-3.605 0.7000000000000003 -3.605 4.4148517109262085e-16 S-3.1580623725076777 -1.4292190354704828 -2.7466126959029467 -1.995530931532946 S-1.7797458261282932 -3.2122468451815656 -1.114006264721686 -3.4285587412440286 S0.38337313449633836 -3.4451487688845095 1.0491126959029458 -3.2288368728220465 S2.505056588116954 -2.6852777305768294 2.916506264721685 -2.1189658345143663 S3.395 -0.7000000000000006 3.395 -8.315351766210528e-16" fill="#c1ddff" stroke-width="0" style="animation-play-state: running; animation-delay: 0s;">
    <animateTransform attributeName="transform" type="rotate" dur="25s" repeatCount="indefinite" values="0;72" style="animation-play-state: running; animation-delay: 0s;"></animateTransform>
  </path>
</g><g transform="translate(920,300) scale(100)" opacity="0.4" style="animation-play-state: running; animation-delay: 0s;">
  <path d="M4.074 0 C4.074 0.8399999999999999 3.9935471295917004 1.8631847261422831 3.499807517666023 2.542759001417239 S2.0578227087714644 3.6150299721114996 1.2589352350835359 3.8746042473864555 S-0.5379200439780935 4.3738447647677905 -1.3368075176660223 4.114270489492835 S-2.802195623157858 3.074211393114491 -3.2959352350835354 2.394637117839536 S-4.3260000000000005 0.8400000000000004 -4.3260000000000005 5.297822053111451e-16 S-3.789674847009213 -1.715062842564579 -3.295935235083536 -2.394637117839535 S-2.135694991353952 -3.854696214217879 -1.3368075176660232 -4.114270489492835 S0.4600477613956061 -4.134178522661411 1.258935235083535 -3.874604247386456 S3.006067905740345 -3.2223332766921953 3.4998075176660226 -2.54275900141724 S4.074 -0.8400000000000009 4.074 -9.978422119452634e-16" fill="#c1ddff" stroke-width="0" style="animation-play-state: running; animation-delay: 0s;">
    <animateTransform attributeName="transform" type="rotate" dur="12.5s" repeatCount="indefinite" values="0;72" style="animation-play-state: running; animation-delay: 0s;"></animateTransform>
  </path>
</g><g transform="translate(1088,300) scale(100)" opacity="0.4" style="animation-play-state: running; animation-delay: 0s;">
  <path d="M5.7036 0 C5.7036 1.1759999999999997 5.59096598142838 2.6084586165991963 4.899730524732432 3.5598626019841344 S2.8809517922800505 5.061041960956099 1.7625093291169502 5.424445946341037 S-0.7530880615693305 6.123382670674906 -1.871530524732431 5.759978685289968 S-3.923073872421001 4.303895950360288 -4.614309329116949 3.3524919649753504 S-6.0564 1.1760000000000004 -6.0564 7.41695087435603e-16 S-5.305544785812899 -2.401087979590411 -4.61430932911695 -3.352491964975349 S-2.9899729878955323 -5.39657469990503 -1.8715305247324323 -5.759978685289968 S0.6440668659538484 -5.787849931725976 1.762509329116949 -5.424445946341038 S4.208495068036482 -4.511266587369073 4.899730524732431 -3.5598626019841357 S5.7036 -1.176000000000001 5.7036 -1.3969790967233686e-15" fill="#c1ddff" stroke-width="0" style="animation-play-state: running; animation-delay: 0s;">
    <animateTransform attributeName="transform" type="rotate" dur="8.333333333333334s" repeatCount="indefinite" values="0;72" style="animation-play-state: running; animation-delay: 0s;"></animateTransform>
  </path>
</g></g>
</svg>