<?xml version="1.0" encoding="utf-8"?>
<svg xmlns="http://www.w3.org/2000/svg" xmlns:xlink="http://www.w3.org/1999/xlink" style="margin: auto; background: rgb(221, 221, 221); display: block; z-index: 1; position: relative; shape-rendering: auto;" width="600" height="1000" preserveAspectRatio="xMidYMid" viewBox="0 0 600 1000">
<g transform="translate(300,500) scale(1,1) translate(-300,-500)"><defs>
<linearGradient id="lg-0.19323670145497118" x1="0" x2="0" y1="0" y2="1">
  <stop stop-color="#f6f9fc" offset="0.43"></stop>
  <stop stop-color="#f6f9fc" offset="0.7150000000000001"></stop>
  <stop stop-color="#f6f9fc" offset="1"></stop>
</linearGradient>
<linearGradient id="fg-lg-0.19323670145497118" x1="0" x2="0" y1="0" y2="1">
  <stop stop-color="#f6f9fc" stop-opacity="1" offset="0.43"></stop>
  <stop stop-color="#f6f9fc" stop-opacity="0.66" offset="0.7150000000000001"></stop>
  <stop stop-color="#f6f9fc" stop-opacity="0" offset="1"></stop>
</linearGradient>
<style type="text/css">
  path { fill: none; stroke: #92eac0; stroke-width: 2px }
</style>
</defs>
<rect x="0" y="0" width="600" height="1000" fill="url(#lg-0.19323670145497118)"></rect><path d="M0 430 L-7260.000000000001 1000"></path><path d="M4.615384615384615 430 L-7143.6923076923085 1000"></path><path d="M9.23076923076923 430 L-7027.384615384616 1000"></path><path d="M13.846153846153847 430 L-6911.076923076924 1000"></path><path d="M18.46153846153846 430 L-6794.769230769231 1000"></path><path d="M23.076923076923077 430 L-6678.461538461539 1000"></path><path d="M27.692307692307693 430 L-6562.153846153847 1000"></path><path d="M32.30769230769231 430 L-6445.846153846154 1000"></path><path d="M36.92307692307692 430 L-6329.538461538463 1000"></path><path d="M41.53846153846154 430 L-6213.2307692307695 1000"></path><path d="M46.15384615384615 430 L-6096.923076923078 1000"></path><path d="M50.76923076923077 430 L-5980.615384615385 1000"></path><path d="M55.38461538461539 430 L-5864.307692307693 1000"></path><path d="M60 430 L-5748.000000000001 1000"></path><path d="M64.61538461538461 430 L-5631.6923076923085 1000"></path><path d="M69.23076923076923 430 L-5515.384615384616 1000"></path><path d="M73.84615384615384 430 L-5399.076923076924 1000"></path><path d="M78.46153846153847 430 L-5282.769230769231 1000"></path><path d="M83.07692307692308 430 L-5166.461538461539 1000"></path><path d="M87.6923076923077 430 L-5050.153846153847 1000"></path><path d="M92.3076923076923 430 L-4933.846153846154 1000"></path><path d="M96.92307692307692 430 L-4817.538461538462 1000"></path><path d="M101.53846153846153 430 L-4701.2307692307695 1000"></path><path d="M106.15384615384616 430 L-4584.923076923078 1000"></path><path d="M110.76923076923077 430 L-4468.615384615385 1000"></path><path d="M115.38461538461539 430 L-4352.307692307693 1000"></path><path d="M120 430 L-4236 1000"></path><path d="M124.61538461538461 430 L-4119.6923076923085 1000"></path><path d="M129.23076923076923 430 L-4003.3846153846157 1000"></path><path d="M133.84615384615384 430 L-3887.0769230769233 1000"></path><path d="M138.46153846153845 430 L-3770.7692307692314 1000"></path><path d="M143.07692307692307 430 L-3654.461538461539 1000"></path><path d="M147.69230769230768 430 L-3538.1538461538466 1000"></path><path d="M152.30769230769232 430 L-3421.8461538461543 1000"></path><path d="M156.92307692307693 430 L-3305.538461538462 1000"></path><path d="M161.53846153846155 430 L-3189.230769230769 1000"></path><path d="M166.15384615384616 430 L-3072.923076923077 1000"></path><path d="M170.76923076923077 430 L-2956.6153846153848 1000"></path><path d="M175.3846153846154 430 L-2840.3076923076924 1000"></path><path d="M180 430 L-2724 1000"></path><path d="M184.6153846153846 430 L-2607.6923076923076 1000"></path><path d="M189.23076923076923 430 L-2491.3846153846152 1000"></path><path d="M193.84615384615384 430 L-2375.076923076923 1000"></path><path d="M198.46153846153845 430 L-2258.7692307692305 1000"></path><path d="M203.07692307692307 430 L-2142.461538461538 1000"></path><path d="M207.69230769230768 430 L-2026.1538461538457 1000"></path><path d="M212.30769230769232 430 L-1909.8461538461543 1000"></path><path d="M216.92307692307693 430 L-1793.538461538462 1000"></path><path d="M221.53846153846155 430 L-1677.2307692307695 1000"></path><path d="M226.15384615384616 430 L-1560.9230769230771 1000"></path><path d="M230.76923076923077 430 L-1444.6153846153848 1000"></path><path d="M235.3846153846154 430 L-1328.3076923076924 1000"></path><path d="M240 430 L-1212 1000"></path><path d="M244.6153846153846 430 L-1095.6923076923076 1000"></path><path d="M249.23076923076923 430 L-979.3846153846152 1000"></path><path d="M253.84615384615384 430 L-863.0769230769229 1000"></path><path d="M258.46153846153845 430 L-746.7692307692305 1000"></path><path d="M263.0769230769231 430 L-630.4615384615381 1000"></path><path d="M267.6923076923077 430 L-514.1538461538457 1000"></path><path d="M272.3076923076923 430 L-397.84615384615427 1000"></path><path d="M276.9230769230769 430 L-281.5384615384619 1000"></path><path d="M281.53846153846155 430 L-165.2307692307695 1000"></path><path d="M286.15384615384613 430 L-48.92307692307713 1000"></path><path d="M290.7692307692308 430 L67.38461538461524 1000"></path><path d="M295.38461538461536 430 L183.69230769230762 1000"></path><path d="M300 430 L300 1000"></path><path d="M304.61538461538464 430 L416.3076923076924 1000"></path><path d="M309.2307692307692 430 L532.6153846153848 1000"></path><path d="M313.84615384615387 430 L648.9230769230771 1000"></path><path d="M318.46153846153845 430 L765.2307692307695 1000"></path><path d="M323.0769230769231 430 L881.5384615384628 1000"></path><path d="M327.6923076923077 430 L997.8461538461552 1000"></path><path d="M332.3076923076923 430 L1114.1538461538466 1000"></path><path d="M336.9230769230769 430 L1230.46153846154 1000"></path><path d="M341.53846153846155 430 L1346.7692307692314 1000"></path><path d="M346.15384615384613 430 L1463.0769230769247 1000"></path><path d="M350.7692307692308 430 L1579.3846153846162 1000"></path><path d="M355.38461538461536 430 L1695.6923076923094 1000"></path><path d="M360 430 L1812.000000000001 1000"></path><path d="M364.61538461538464 430 L1928.3076923076924 1000"></path><path d="M369.2307692307692 430 L2044.6153846153857 1000"></path><path d="M373.84615384615387 430 L2160.923076923077 1000"></path><path d="M378.46153846153845 430 L2277.2307692307704 1000"></path><path d="M383.0769230769231 430 L2393.538461538462 1000"></path><path d="M387.6923076923077 430 L2509.846153846155 1000"></path><path d="M392.3076923076923 430 L2626.1538461538466 1000"></path><path d="M396.9230769230769 430 L2742.46153846154 1000"></path><path d="M401.53846153846155 430 L2858.7692307692314 1000"></path><path d="M406.15384615384613 430 L2975.0769230769247 1000"></path><path d="M410.7692307692308 430 L3091.384615384616 1000"></path><path d="M415.38461538461536 430 L3207.6923076923094 1000"></path><path d="M420 430 L3324.000000000001 1000"></path><path d="M424.61538461538464 430 L3440.3076923076924 1000"></path><path d="M429.2307692307692 430 L3556.6153846153857 1000"></path><path d="M433.84615384615387 430 L3672.923076923077 1000"></path><path d="M438.46153846153845 430 L3789.2307692307704 1000"></path><path d="M443.0769230769231 430 L3905.538461538462 1000"></path><path d="M447.6923076923077 430 L4021.846153846155 1000"></path><path d="M452.3076923076923 430 L4138.153846153847 1000"></path><path d="M456.9230769230769 430 L4254.46153846154 1000"></path><path d="M461.53846153846155 430 L4370.769230769231 1000"></path><path d="M466.15384615384613 430 L4487.076923076925 1000"></path><path d="M470.7692307692308 430 L4603.384615384616 1000"></path><path d="M475.38461538461536 430 L4719.692307692309 1000"></path><path d="M480 430 L4836.000000000001 1000"></path><path d="M484.61538461538464 430 L4952.307692307692 1000"></path><path d="M489.2307692307692 430 L5068.615384615386 1000"></path><path d="M493.84615384615387 430 L5184.923076923077 1000"></path><path d="M498.46153846153845 430 L5301.23076923077 1000"></path><path d="M503.0769230769231 430 L5417.538461538462 1000"></path><path d="M507.6923076923077 430 L5533.846153846155 1000"></path><path d="M512.3076923076923 430 L5650.153846153847 1000"></path><path d="M516.9230769230769 430 L5766.46153846154 1000"></path><path d="M521.5384615384615 430 L5882.769230769231 1000"></path><path d="M526.1538461538462 430 L5999.076923076925 1000"></path><path d="M530.7692307692307 430 L6115.384615384616 1000"></path><path d="M535.3846153846154 430 L6231.692307692309 1000"></path><path d="M540 430 L6348.000000000001 1000"></path><path d="M544.6153846153846 430 L6464.307692307692 1000"></path><path d="M549.2307692307693 430 L6580.615384615386 1000"></path><path d="M553.8461538461538 430 L6696.923076923077 1000"></path><path d="M558.4615384615385 430 L6813.23076923077 1000"></path><path d="M563.0769230769231 430 L6929.538461538462 1000"></path><path d="M567.6923076923077 430 L7045.846153846155 1000"></path><path d="M572.3076923076923 430 L7162.153846153847 1000"></path><path d="M576.9230769230769 430 L7278.46153846154 1000"></path><path d="M581.5384615384615 430 L7394.769230769231 1000"></path><path d="M586.1538461538462 430 L7511.076923076925 1000"></path><path d="M590.7692307692307 430 L7627.384615384616 1000"></path><path d="M595.3846153846154 430 L7743.692307692309 1000"></path><path d="M600 430 L7860.000000000001 1000"></path><g>
<path d="M0 430 L600 430"></path>
<animateTransform attributeName="transform" type="translate" repeatCount="indefinite" calcMode="linear" keyTimes="0;1" values="0 0;0 4.317159763313611" begin="0s" dur="0.970873786407767s"></animateTransform>

</g><g>
<path d="M0 434.3171597633136 L600 434.3171597633136"></path>
<animateTransform attributeName="transform" type="translate" repeatCount="indefinite" calcMode="linear" keyTimes="0;1" values="0 0;0 8.63431952662722" begin="0s" dur="0.970873786407767s"></animateTransform>

</g><g>
<path d="M0 442.95147928994083 L600 442.95147928994083"></path>
<animateTransform attributeName="transform" type="translate" repeatCount="indefinite" calcMode="linear" keyTimes="0;1" values="0 0;0 12.951479289940831" begin="0s" dur="0.970873786407767s"></animateTransform>

</g><g>
<path d="M0 455.90295857988167 L600 455.90295857988167"></path>
<animateTransform attributeName="transform" type="translate" repeatCount="indefinite" calcMode="linear" keyTimes="0;1" values="0 0;0 17.268639053254443" begin="0s" dur="0.970873786407767s"></animateTransform>

</g><g>
<path d="M0 473.1715976331361 L600 473.1715976331361"></path>
<animateTransform attributeName="transform" type="translate" repeatCount="indefinite" calcMode="linear" keyTimes="0;1" values="0 0;0 21.585798816568055" begin="0s" dur="0.970873786407767s"></animateTransform>

</g><g>
<path d="M0 494.7573964497042 L600 494.7573964497042"></path>
<animateTransform attributeName="transform" type="translate" repeatCount="indefinite" calcMode="linear" keyTimes="0;1" values="0 0;0 25.902958579881666" begin="0s" dur="0.970873786407767s"></animateTransform>

</g><g>
<path d="M0 520.6603550295858 L600 520.6603550295858"></path>
<animateTransform attributeName="transform" type="translate" repeatCount="indefinite" calcMode="linear" keyTimes="0;1" values="0 0;0 30.220118343195274" begin="0s" dur="0.970873786407767s"></animateTransform>

</g><g>
<path d="M0 550.8804733727811 L600 550.8804733727811"></path>
<animateTransform attributeName="transform" type="translate" repeatCount="indefinite" calcMode="linear" keyTimes="0;1" values="0 0;0 34.537278106508886" begin="0s" dur="0.970873786407767s"></animateTransform>

</g><g>
<path d="M0 585.41775147929 L600 585.41775147929"></path>
<animateTransform attributeName="transform" type="translate" repeatCount="indefinite" calcMode="linear" keyTimes="0;1" values="0 0;0 38.8544378698225" begin="0s" dur="0.970873786407767s"></animateTransform>

</g><g>
<path d="M0 624.2721893491125 L600 624.2721893491125"></path>
<animateTransform attributeName="transform" type="translate" repeatCount="indefinite" calcMode="linear" keyTimes="0;1" values="0 0;0 43.17159763313611" begin="0s" dur="0.970873786407767s"></animateTransform>

</g><g>
<path d="M0 667.4437869822486 L600 667.4437869822486"></path>
<animateTransform attributeName="transform" type="translate" repeatCount="indefinite" calcMode="linear" keyTimes="0;1" values="0 0;0 47.48875739644972" begin="0s" dur="0.970873786407767s"></animateTransform>

</g><g>
<path d="M0 714.9325443786984 L600 714.9325443786984"></path>
<animateTransform attributeName="transform" type="translate" repeatCount="indefinite" calcMode="linear" keyTimes="0;1" values="0 0;0 51.80591715976333" begin="0s" dur="0.970873786407767s"></animateTransform>

</g><g>
<path d="M0 766.7384615384617 L600 766.7384615384617"></path>
<animateTransform attributeName="transform" type="translate" repeatCount="indefinite" calcMode="linear" keyTimes="0;1" values="0 0;0 56.123076923076944" begin="0s" dur="0.970873786407767s"></animateTransform>

</g><g>
<path d="M0 822.8615384615387 L600 822.8615384615387"></path>
<animateTransform attributeName="transform" type="translate" repeatCount="indefinite" calcMode="linear" keyTimes="0;1" values="0 0;0 60.44023668639055" begin="0s" dur="0.970873786407767s"></animateTransform>

</g><g>
<path d="M0 883.3017751479292 L600 883.3017751479292"></path>
<animateTransform attributeName="transform" type="translate" repeatCount="indefinite" calcMode="linear" keyTimes="0;1" values="0 0;0 64.75739644970416" begin="0s" dur="0.970873786407767s"></animateTransform>

</g><g>
<path d="M0 948.0591715976334 L600 948.0591715976334"></path>
<animateTransform attributeName="transform" type="translate" repeatCount="indefinite" calcMode="linear" keyTimes="0;1" values="0 0;0 69.07455621301777" begin="0s" dur="0.970873786407767s"></animateTransform>

</g><g>
<path d="M0 1017.1337278106512 L600 1017.1337278106512"></path>
<animateTransform attributeName="transform" type="translate" repeatCount="indefinite" calcMode="linear" keyTimes="0;1" values="0 0;0 73.39171597633138" begin="0s" dur="0.970873786407767s"></animateTransform>

</g><rect x="0" y="0" width="600" height="1000" fill="url(#fg-lg-0.19323670145497118)"></rect></g>
</svg>