<?xml version="1.0" encoding="utf-8"?>
<svg xmlns="http://www.w3.org/2000/svg" xmlns:xlink="http://www.w3.org/1999/xlink" style="margin: auto; background: rgb(221, 221, 221); display: block; z-index: 1; position: relative; shape-rendering: auto;" width="600" height="1000" preserveAspectRatio="xMidYMid" viewBox="0 0 600 1000">
<g transform="translate(300,500) scale(1,1) translate(-300,-500)"><defs>
<linearGradient id="lg-0.7788671002284713" x1="0" x2="0" y1="0" y2="1">
  <stop stop-color="#f6f9fc" offset="0.4"></stop>
  <stop stop-color="#f6f9fc" offset="0.7"></stop>
  <stop stop-color="#f6f9fc" offset="1"></stop>
</linearGradient>
<linearGradient id="fg-lg-0.7788671002284713" x1="0" x2="0" y1="0" y2="1">
  <stop stop-color="#f6f9fc" stop-opacity="1" offset="0.4"></stop>
  <stop stop-color="#f6f9fc" stop-opacity="0.66" offset="0.7"></stop>
  <stop stop-color="#f6f9fc" stop-opacity="0" offset="1"></stop>
</linearGradient>
<style type="text/css">
  path { fill: none; stroke: #92eac0; stroke-width: 2px }
</style>
</defs>
<rect x="0" y="0" width="600" height="1000" fill="url(#lg-0.7788671002284713)"></rect><path d="M0 400 L-7260.000000000001 1000"></path><path d="M4.615384615384615 400 L-7143.6923076923085 1000"></path><path d="M9.23076923076923 400 L-7027.384615384616 1000"></path><path d="M13.846153846153847 400 L-6911.076923076924 1000"></path><path d="M18.46153846153846 400 L-6794.769230769231 1000"></path><path d="M23.076923076923077 400 L-6678.461538461539 1000"></path><path d="M27.692307692307693 400 L-6562.153846153847 1000"></path><path d="M32.30769230769231 400 L-6445.846153846154 1000"></path><path d="M36.92307692307692 400 L-6329.538461538463 1000"></path><path d="M41.53846153846154 400 L-6213.2307692307695 1000"></path><path d="M46.15384615384615 400 L-6096.923076923078 1000"></path><path d="M50.76923076923077 400 L-5980.615384615385 1000"></path><path d="M55.38461538461539 400 L-5864.307692307693 1000"></path><path d="M60 400 L-5748.000000000001 1000"></path><path d="M64.61538461538461 400 L-5631.6923076923085 1000"></path><path d="M69.23076923076923 400 L-5515.384615384616 1000"></path><path d="M73.84615384615384 400 L-5399.076923076924 1000"></path><path d="M78.46153846153847 400 L-5282.769230769231 1000"></path><path d="M83.07692307692308 400 L-5166.461538461539 1000"></path><path d="M87.6923076923077 400 L-5050.153846153847 1000"></path><path d="M92.3076923076923 400 L-4933.846153846154 1000"></path><path d="M96.92307692307692 400 L-4817.538461538462 1000"></path><path d="M101.53846153846153 400 L-4701.2307692307695 1000"></path><path d="M106.15384615384616 400 L-4584.923076923078 1000"></path><path d="M110.76923076923077 400 L-4468.615384615385 1000"></path><path d="M115.38461538461539 400 L-4352.307692307693 1000"></path><path d="M120 400 L-4236 1000"></path><path d="M124.61538461538461 400 L-4119.6923076923085 1000"></path><path d="M129.23076923076923 400 L-4003.3846153846157 1000"></path><path d="M133.84615384615384 400 L-3887.0769230769233 1000"></path><path d="M138.46153846153845 400 L-3770.7692307692314 1000"></path><path d="M143.07692307692307 400 L-3654.461538461539 1000"></path><path d="M147.69230769230768 400 L-3538.1538461538466 1000"></path><path d="M152.30769230769232 400 L-3421.8461538461543 1000"></path><path d="M156.92307692307693 400 L-3305.538461538462 1000"></path><path d="M161.53846153846155 400 L-3189.230769230769 1000"></path><path d="M166.15384615384616 400 L-3072.923076923077 1000"></path><path d="M170.76923076923077 400 L-2956.6153846153848 1000"></path><path d="M175.3846153846154 400 L-2840.3076923076924 1000"></path><path d="M180 400 L-2724 1000"></path><path d="M184.6153846153846 400 L-2607.6923076923076 1000"></path><path d="M189.23076923076923 400 L-2491.3846153846152 1000"></path><path d="M193.84615384615384 400 L-2375.076923076923 1000"></path><path d="M198.46153846153845 400 L-2258.7692307692305 1000"></path><path d="M203.07692307692307 400 L-2142.461538461538 1000"></path><path d="M207.69230769230768 400 L-2026.1538461538457 1000"></path><path d="M212.30769230769232 400 L-1909.8461538461543 1000"></path><path d="M216.92307692307693 400 L-1793.538461538462 1000"></path><path d="M221.53846153846155 400 L-1677.2307692307695 1000"></path><path d="M226.15384615384616 400 L-1560.9230769230771 1000"></path><path d="M230.76923076923077 400 L-1444.6153846153848 1000"></path><path d="M235.3846153846154 400 L-1328.3076923076924 1000"></path><path d="M240 400 L-1212 1000"></path><path d="M244.6153846153846 400 L-1095.6923076923076 1000"></path><path d="M249.23076923076923 400 L-979.3846153846152 1000"></path><path d="M253.84615384615384 400 L-863.0769230769229 1000"></path><path d="M258.46153846153845 400 L-746.7692307692305 1000"></path><path d="M263.0769230769231 400 L-630.4615384615381 1000"></path><path d="M267.6923076923077 400 L-514.1538461538457 1000"></path><path d="M272.3076923076923 400 L-397.84615384615427 1000"></path><path d="M276.9230769230769 400 L-281.5384615384619 1000"></path><path d="M281.53846153846155 400 L-165.2307692307695 1000"></path><path d="M286.15384615384613 400 L-48.92307692307713 1000"></path><path d="M290.7692307692308 400 L67.38461538461524 1000"></path><path d="M295.38461538461536 400 L183.69230769230762 1000"></path><path d="M300 400 L300 1000"></path><path d="M304.61538461538464 400 L416.3076923076924 1000"></path><path d="M309.2307692307692 400 L532.6153846153848 1000"></path><path d="M313.84615384615387 400 L648.9230769230771 1000"></path><path d="M318.46153846153845 400 L765.2307692307695 1000"></path><path d="M323.0769230769231 400 L881.5384615384628 1000"></path><path d="M327.6923076923077 400 L997.8461538461552 1000"></path><path d="M332.3076923076923 400 L1114.1538461538466 1000"></path><path d="M336.9230769230769 400 L1230.46153846154 1000"></path><path d="M341.53846153846155 400 L1346.7692307692314 1000"></path><path d="M346.15384615384613 400 L1463.0769230769247 1000"></path><path d="M350.7692307692308 400 L1579.3846153846162 1000"></path><path d="M355.38461538461536 400 L1695.6923076923094 1000"></path><path d="M360 400 L1812.000000000001 1000"></path><path d="M364.61538461538464 400 L1928.3076923076924 1000"></path><path d="M369.2307692307692 400 L2044.6153846153857 1000"></path><path d="M373.84615384615387 400 L2160.923076923077 1000"></path><path d="M378.46153846153845 400 L2277.2307692307704 1000"></path><path d="M383.0769230769231 400 L2393.538461538462 1000"></path><path d="M387.6923076923077 400 L2509.846153846155 1000"></path><path d="M392.3076923076923 400 L2626.1538461538466 1000"></path><path d="M396.9230769230769 400 L2742.46153846154 1000"></path><path d="M401.53846153846155 400 L2858.7692307692314 1000"></path><path d="M406.15384615384613 400 L2975.0769230769247 1000"></path><path d="M410.7692307692308 400 L3091.384615384616 1000"></path><path d="M415.38461538461536 400 L3207.6923076923094 1000"></path><path d="M420 400 L3324.000000000001 1000"></path><path d="M424.61538461538464 400 L3440.3076923076924 1000"></path><path d="M429.2307692307692 400 L3556.6153846153857 1000"></path><path d="M433.84615384615387 400 L3672.923076923077 1000"></path><path d="M438.46153846153845 400 L3789.2307692307704 1000"></path><path d="M443.0769230769231 400 L3905.538461538462 1000"></path><path d="M447.6923076923077 400 L4021.846153846155 1000"></path><path d="M452.3076923076923 400 L4138.153846153847 1000"></path><path d="M456.9230769230769 400 L4254.46153846154 1000"></path><path d="M461.53846153846155 400 L4370.769230769231 1000"></path><path d="M466.15384615384613 400 L4487.076923076925 1000"></path><path d="M470.7692307692308 400 L4603.384615384616 1000"></path><path d="M475.38461538461536 400 L4719.692307692309 1000"></path><path d="M480 400 L4836.000000000001 1000"></path><path d="M484.61538461538464 400 L4952.307692307692 1000"></path><path d="M489.2307692307692 400 L5068.615384615386 1000"></path><path d="M493.84615384615387 400 L5184.923076923077 1000"></path><path d="M498.46153846153845 400 L5301.23076923077 1000"></path><path d="M503.0769230769231 400 L5417.538461538462 1000"></path><path d="M507.6923076923077 400 L5533.846153846155 1000"></path><path d="M512.3076923076923 400 L5650.153846153847 1000"></path><path d="M516.9230769230769 400 L5766.46153846154 1000"></path><path d="M521.5384615384615 400 L5882.769230769231 1000"></path><path d="M526.1538461538462 400 L5999.076923076925 1000"></path><path d="M530.7692307692307 400 L6115.384615384616 1000"></path><path d="M535.3846153846154 400 L6231.692307692309 1000"></path><path d="M540 400 L6348.000000000001 1000"></path><path d="M544.6153846153846 400 L6464.307692307692 1000"></path><path d="M549.2307692307693 400 L6580.615384615386 1000"></path><path d="M553.8461538461538 400 L6696.923076923077 1000"></path><path d="M558.4615384615385 400 L6813.23076923077 1000"></path><path d="M563.0769230769231 400 L6929.538461538462 1000"></path><path d="M567.6923076923077 400 L7045.846153846155 1000"></path><path d="M572.3076923076923 400 L7162.153846153847 1000"></path><path d="M576.9230769230769 400 L7278.46153846154 1000"></path><path d="M581.5384615384615 400 L7394.769230769231 1000"></path><path d="M586.1538461538462 400 L7511.076923076925 1000"></path><path d="M590.7692307692307 400 L7627.384615384616 1000"></path><path d="M595.3846153846154 400 L7743.692307692309 1000"></path><path d="M600 400 L7860.000000000001 1000"></path><g>
<path d="M0 400 L600 400"></path>
<animateTransform attributeName="transform" type="translate" repeatCount="indefinite" calcMode="linear" keyTimes="0;1" values="0 0;0 4.544378698224852" begin="0s" dur="0.970873786407767s"></animateTransform>

</g><g>
<path d="M0 404.5443786982249 L600 404.5443786982249"></path>
<animateTransform attributeName="transform" type="translate" repeatCount="indefinite" calcMode="linear" keyTimes="0;1" values="0 0;0 9.088757396449704" begin="0s" dur="0.970873786407767s"></animateTransform>

</g><g>
<path d="M0 413.63313609467457 L600 413.63313609467457"></path>
<animateTransform attributeName="transform" type="translate" repeatCount="indefinite" calcMode="linear" keyTimes="0;1" values="0 0;0 13.633136094674557" begin="0s" dur="0.970873786407767s"></animateTransform>

</g><g>
<path d="M0 427.26627218934914 L600 427.26627218934914"></path>
<animateTransform attributeName="transform" type="translate" repeatCount="indefinite" calcMode="linear" keyTimes="0;1" values="0 0;0 18.17751479289941" begin="0s" dur="0.970873786407767s"></animateTransform>

</g><g>
<path d="M0 445.4437869822485 L600 445.4437869822485"></path>
<animateTransform attributeName="transform" type="translate" repeatCount="indefinite" calcMode="linear" keyTimes="0;1" values="0 0;0 22.721893491124263" begin="0s" dur="0.970873786407767s"></animateTransform>

</g><g>
<path d="M0 468.1656804733728 L600 468.1656804733728"></path>
<animateTransform attributeName="transform" type="translate" repeatCount="indefinite" calcMode="linear" keyTimes="0;1" values="0 0;0 27.266272189349117" begin="0s" dur="0.970873786407767s"></animateTransform>

</g><g>
<path d="M0 495.4319526627219 L600 495.4319526627219"></path>
<animateTransform attributeName="transform" type="translate" repeatCount="indefinite" calcMode="linear" keyTimes="0;1" values="0 0;0 31.81065088757397" begin="0s" dur="0.970873786407767s"></animateTransform>

</g><g>
<path d="M0 527.2426035502959 L600 527.2426035502959"></path>
<animateTransform attributeName="transform" type="translate" repeatCount="indefinite" calcMode="linear" keyTimes="0;1" values="0 0;0 36.355029585798825" begin="0s" dur="0.970873786407767s"></animateTransform>

</g><g>
<path d="M0 563.5976331360947 L600 563.5976331360947"></path>
<animateTransform attributeName="transform" type="translate" repeatCount="indefinite" calcMode="linear" keyTimes="0;1" values="0 0;0 40.89940828402368" begin="0s" dur="0.970873786407767s"></animateTransform>

</g><g>
<path d="M0 604.4970414201184 L600 604.4970414201184"></path>
<animateTransform attributeName="transform" type="translate" repeatCount="indefinite" calcMode="linear" keyTimes="0;1" values="0 0;0 45.44378698224853" begin="0s" dur="0.970873786407767s"></animateTransform>

</g><g>
<path d="M0 649.940828402367 L600 649.940828402367"></path>
<animateTransform attributeName="transform" type="translate" repeatCount="indefinite" calcMode="linear" keyTimes="0;1" values="0 0;0 49.98816568047339" begin="0s" dur="0.970873786407767s"></animateTransform>

</g><g>
<path d="M0 699.9289940828403 L600 699.9289940828403"></path>
<animateTransform attributeName="transform" type="translate" repeatCount="indefinite" calcMode="linear" keyTimes="0;1" values="0 0;0 54.53254437869824" begin="0s" dur="0.970873786407767s"></animateTransform>

</g><g>
<path d="M0 754.4615384615386 L600 754.4615384615386"></path>
<animateTransform attributeName="transform" type="translate" repeatCount="indefinite" calcMode="linear" keyTimes="0;1" values="0 0;0 59.076923076923094" begin="0s" dur="0.970873786407767s"></animateTransform>

</g><g>
<path d="M0 813.5384615384617 L600 813.5384615384617"></path>
<animateTransform attributeName="transform" type="translate" repeatCount="indefinite" calcMode="linear" keyTimes="0;1" values="0 0;0 63.62130177514795" begin="0s" dur="0.970873786407767s"></animateTransform>

</g><g>
<path d="M0 877.1597633136096 L600 877.1597633136096"></path>
<animateTransform attributeName="transform" type="translate" repeatCount="indefinite" calcMode="linear" keyTimes="0;1" values="0 0;0 68.1656804733728" begin="0s" dur="0.970873786407767s"></animateTransform>

</g><g>
<path d="M0 945.3254437869824 L600 945.3254437869824"></path>
<animateTransform attributeName="transform" type="translate" repeatCount="indefinite" calcMode="linear" keyTimes="0;1" values="0 0;0 72.71005917159765" begin="0s" dur="0.970873786407767s"></animateTransform>

</g><g>
<path d="M0 1018.0355029585801 L600 1018.0355029585801"></path>
<animateTransform attributeName="transform" type="translate" repeatCount="indefinite" calcMode="linear" keyTimes="0;1" values="0 0;0 77.2544378698225" begin="0s" dur="0.970873786407767s"></animateTransform>

</g><rect x="0" y="0" width="600" height="1000" fill="url(#fg-lg-0.7788671002284713)"></rect></g>
</svg>