<?xml version="1.0" encoding="utf-8"?>
<svg xmlns="http://www.w3.org/2000/svg" xmlns:xlink="http://www.w3.org/1999/xlink" style="margin: auto; background: rgb(221, 221, 221); display: block; z-index: 1; position: relative; shape-rendering: auto;" width="2088" height="1103" preserveAspectRatio="xMidYMid" viewBox="0 0 2088 1103">
<g transform="translate(1044,551.5) scale(1,1) translate(-1044,-551.5)"><defs>
<linearGradient id="lg-0.4566107581834866" x1="0" x2="0" y1="0" y2="1">
  <stop stop-color="#f6f9fc" offset="0.4"></stop>
  <stop stop-color="#f6f9fc" offset="0.7"></stop>
  <stop stop-color="#f6f9fc" offset="1"></stop>
</linearGradient>
<linearGradient id="fg-lg-0.4566107581834866" x1="0" x2="0" y1="0" y2="1">
  <stop stop-color="#f6f9fc" stop-opacity="1" offset="0.4"></stop>
  <stop stop-color="#f6f9fc" stop-opacity="0.66" offset="0.7"></stop>
  <stop stop-color="#f6f9fc" stop-opacity="0" offset="1"></stop>
</linearGradient>
<style type="text/css">
  path { fill: none; stroke: #92eac0; stroke-width: 2px }
</style>
</defs>
<rect x="0" y="0" width="2088" height="1103" fill="url(#lg-0.4566107581834866)"></rect><path d="M0 441.20000000000005 L-14616 1103"></path><path d="M16.06153846153846 441.20000000000005 L-14375.076923076924 1103"></path><path d="M32.12307692307692 441.20000000000005 L-14134.153846153846 1103"></path><path d="M48.184615384615384 441.20000000000005 L-13893.23076923077 1103"></path><path d="M64.24615384615385 441.20000000000005 L-13652.307692307691 1103"></path><path d="M80.3076923076923 441.20000000000005 L-13411.384615384615 1103"></path><path d="M96.36923076923077 441.20000000000005 L-13170.461538461539 1103"></path><path d="M112.43076923076923 441.20000000000005 L-12929.538461538461 1103"></path><path d="M128.4923076923077 441.20000000000005 L-12688.615384615385 1103"></path><path d="M144.55384615384617 441.20000000000005 L-12447.692307692309 1103"></path><path d="M160.6153846153846 441.20000000000005 L-12206.76923076923 1103"></path><path d="M176.6769230769231 441.20000000000005 L-11965.846153846154 1103"></path><path d="M192.73846153846154 441.20000000000005 L-11724.923076923078 1103"></path><path d="M208.8 441.20000000000005 L-11484 1103"></path><path d="M224.86153846153846 441.20000000000005 L-11243.076923076922 1103"></path><path d="M240.92307692307693 441.20000000000005 L-11002.153846153846 1103"></path><path d="M256.9846153846154 441.20000000000005 L-10761.23076923077 1103"></path><path d="M273.04615384615386 441.20000000000005 L-10520.307692307691 1103"></path><path d="M289.10769230769233 441.20000000000005 L-10279.384615384615 1103"></path><path d="M305.16923076923075 441.20000000000005 L-10038.461538461539 1103"></path><path d="M321.2307692307692 441.20000000000005 L-9797.538461538461 1103"></path><path d="M337.2923076923077 441.20000000000005 L-9556.615384615385 1103"></path><path d="M353.3538461538462 441.20000000000005 L-9315.692307692309 1103"></path><path d="M369.4153846153846 441.20000000000005 L-9074.76923076923 1103"></path><path d="M385.4769230769231 441.20000000000005 L-8833.846153846154 1103"></path><path d="M401.53846153846155 441.20000000000005 L-8592.923076923078 1103"></path><path d="M417.6 441.20000000000005 L-8352 1103"></path><path d="M433.66153846153844 441.20000000000005 L-8111.076923076923 1103"></path><path d="M449.7230769230769 441.20000000000005 L-7870.153846153846 1103"></path><path d="M465.7846153846154 441.20000000000005 L-7629.2307692307695 1103"></path><path d="M481.84615384615387 441.20000000000005 L-7388.307692307692 1103"></path><path d="M497.9076923076923 441.20000000000005 L-7147.384615384615 1103"></path><path d="M513.9692307692308 441.20000000000005 L-6906.461538461538 1103"></path><path d="M530.0307692307692 441.20000000000005 L-6665.538461538462 1103"></path><path d="M546.0923076923077 441.20000000000005 L-6424.615384615385 1103"></path><path d="M562.1538461538462 441.20000000000005 L-6183.6923076923085 1103"></path><path d="M578.2153846153847 441.20000000000005 L-5942.7692307692305 1103"></path><path d="M594.276923076923 441.20000000000005 L-5701.846153846154 1103"></path><path d="M610.3384615384615 441.20000000000005 L-5460.923076923076 1103"></path><path d="M626.4 441.20000000000005 L-5220 1103"></path><path d="M642.4615384615385 441.20000000000005 L-4979.076923076924 1103"></path><path d="M658.5230769230769 441.20000000000005 L-4738.153846153846 1103"></path><path d="M674.5846153846154 441.20000000000005 L-4497.2307692307695 1103"></path><path d="M690.6461538461539 441.20000000000005 L-4256.3076923076915 1103"></path><path d="M706.7076923076924 441.20000000000005 L-4015.3846153846152 1103"></path><path d="M722.7692307692307 441.20000000000005 L-3774.461538461539 1103"></path><path d="M738.8307692307692 441.20000000000005 L-3533.538461538461 1103"></path><path d="M754.8923076923077 441.20000000000005 L-3292.6153846153848 1103"></path><path d="M770.9538461538461 441.20000000000005 L-3051.6923076923085 1103"></path><path d="M787.0153846153846 441.20000000000005 L-2810.7692307692305 1103"></path><path d="M803.0769230769231 441.20000000000005 L-2569.8461538461543 1103"></path><path d="M819.1384615384616 441.20000000000005 L-2328.923076923076 1103"></path><path d="M835.2 441.20000000000005 L-2088 1103"></path><path d="M851.2615384615384 441.20000000000005 L-1847.0769230769238 1103"></path><path d="M867.3230769230769 441.20000000000005 L-1606.1538461538457 1103"></path><path d="M883.3846153846154 441.20000000000005 L-1365.2307692307695 1103"></path><path d="M899.4461538461538 441.20000000000005 L-1124.3076923076915 1103"></path><path d="M915.5076923076923 441.20000000000005 L-883.3846153846152 1103"></path><path d="M931.5692307692308 441.20000000000005 L-642.461538461539 1103"></path><path d="M947.6307692307693 441.20000000000005 L-401.538461538461 1103"></path><path d="M963.6923076923077 441.20000000000005 L-160.61538461538476 1103"></path><path d="M979.7538461538461 441.20000000000005 L80.30769230769147 1103"></path><path d="M995.8153846153846 441.20000000000005 L321.2307692307695 1103"></path><path d="M1011.876923076923 441.20000000000005 L562.1538461538457 1103"></path><path d="M1027.9384615384615 441.20000000000005 L803.0769230769238 1103"></path><path d="M1044 441.20000000000005 L1044 1103"></path><path d="M1060.0615384615385 441.20000000000005 L1284.9230769230762 1103"></path><path d="M1076.123076923077 441.20000000000005 L1525.8461538461543 1103"></path><path d="M1092.1846153846154 441.20000000000005 L1766.7692307692305 1103"></path><path d="M1108.246153846154 441.20000000000005 L2007.6923076923085 1103"></path><path d="M1124.3076923076924 441.20000000000005 L2248.615384615383 1103"></path><path d="M1140.3692307692309 441.20000000000005 L2489.538461538461 1103"></path><path d="M1156.4307692307693 441.20000000000005 L2730.461538461539 1103"></path><path d="M1172.4923076923078 441.20000000000005 L2971.384615384617 1103"></path><path d="M1188.553846153846 441.20000000000005 L3212.3076923076915 1103"></path><path d="M1204.6153846153845 441.20000000000005 L3453.2307692307695 1103"></path><path d="M1220.676923076923 441.20000000000005 L3694.1538461538476 1103"></path><path d="M1236.7384615384615 441.20000000000005 L3935.076923076922 1103"></path><path d="M1252.8 441.20000000000005 L4176 1103"></path><path d="M1268.8615384615384 441.20000000000005 L4416.923076923078 1103"></path><path d="M1284.923076923077 441.20000000000005 L4657.846153846152 1103"></path><path d="M1300.9846153846154 441.20000000000005 L4898.7692307692305 1103"></path><path d="M1317.0461538461539 441.20000000000005 L5139.6923076923085 1103"></path><path d="M1333.1076923076923 441.20000000000005 L5380.615384615383 1103"></path><path d="M1349.1692307692308 441.20000000000005 L5621.538461538461 1103"></path><path d="M1365.2307692307693 441.20000000000005 L5862.461538461539 1103"></path><path d="M1381.2923076923078 441.20000000000005 L6103.384615384617 1103"></path><path d="M1397.3538461538462 441.20000000000005 L6344.3076923076915 1103"></path><path d="M1413.4153846153847 441.20000000000005 L6585.2307692307695 1103"></path><path d="M1429.4769230769232 441.20000000000005 L6826.153846153848 1103"></path><path d="M1445.5384615384614 441.20000000000005 L7067.076923076922 1103"></path><path d="M1461.6 441.20000000000005 L7308 1103"></path><path d="M1477.6615384615384 441.20000000000005 L7548.923076923078 1103"></path><path d="M1493.7230769230769 441.20000000000005 L7789.846153846152 1103"></path><path d="M1509.7846153846153 441.20000000000005 L8030.7692307692305 1103"></path><path d="M1525.8461538461538 441.20000000000005 L8271.692307692309 1103"></path><path d="M1541.9076923076923 441.20000000000005 L8512.615384615383 1103"></path><path d="M1557.9692307692308 441.20000000000005 L8753.538461538461 1103"></path><path d="M1574.0307692307692 441.20000000000005 L8994.461538461539 1103"></path><path d="M1590.0923076923077 441.20000000000005 L9235.384615384617 1103"></path><path d="M1606.1538461538462 441.20000000000005 L9476.307692307691 1103"></path><path d="M1622.2153846153847 441.20000000000005 L9717.23076923077 1103"></path><path d="M1638.2769230769231 441.20000000000005 L9958.153846153848 1103"></path><path d="M1654.3384615384616 441.20000000000005 L10199.076923076922 1103"></path><path d="M1670.4 441.20000000000005 L10440 1103"></path><path d="M1686.4615384615386 441.20000000000005 L10680.923076923078 1103"></path><path d="M1702.5230769230768 441.20000000000005 L10921.846153846152 1103"></path><path d="M1718.5846153846153 441.20000000000005 L11162.76923076923 1103"></path><path d="M1734.6461538461538 441.20000000000005 L11403.692307692309 1103"></path><path d="M1750.7076923076922 441.20000000000005 L11644.615384615383 1103"></path><path d="M1766.7692307692307 441.20000000000005 L11885.538461538461 1103"></path><path d="M1782.8307692307692 441.20000000000005 L12126.461538461539 1103"></path><path d="M1798.8923076923077 441.20000000000005 L12367.384615384617 1103"></path><path d="M1814.9538461538461 441.20000000000005 L12608.307692307691 1103"></path><path d="M1831.0153846153846 441.20000000000005 L12849.23076923077 1103"></path><path d="M1847.076923076923 441.20000000000005 L13090.153846153848 1103"></path><path d="M1863.1384615384616 441.20000000000005 L13331.076923076922 1103"></path><path d="M1879.2 441.20000000000005 L13572 1103"></path><path d="M1895.2615384615385 441.20000000000005 L13812.923076923078 1103"></path><path d="M1911.323076923077 441.20000000000005 L14053.846153846152 1103"></path><path d="M1927.3846153846155 441.20000000000005 L14294.76923076923 1103"></path><path d="M1943.446153846154 441.20000000000005 L14535.692307692309 1103"></path><path d="M1959.5076923076922 441.20000000000005 L14776.615384615383 1103"></path><path d="M1975.5692307692307 441.20000000000005 L15017.538461538461 1103"></path><path d="M1991.6307692307691 441.20000000000005 L15258.461538461539 1103"></path><path d="M2007.6923076923076 441.20000000000005 L15499.384615384617 1103"></path><path d="M2023.753846153846 441.20000000000005 L15740.307692307691 1103"></path><path d="M2039.8153846153846 441.20000000000005 L15981.23076923077 1103"></path><path d="M2055.876923076923 441.20000000000005 L16222.153846153848 1103"></path><path d="M2071.9384615384615 441.20000000000005 L16463.076923076922 1103"></path><path d="M2088 441.20000000000005 L16704 1103"></path><g>
<path d="M0 441.20000000000005 L2088 441.20000000000005"></path>
<animateTransform attributeName="transform" type="translate" repeatCount="indefinite" calcMode="linear" keyTimes="0;1" values="0 0;0 5.0124497041420115" begin="0s" dur="0.8547008547008548s"></animateTransform>

</g><g>
<path d="M0 446.21244970414205 L2088 446.21244970414205"></path>
<animateTransform attributeName="transform" type="translate" repeatCount="indefinite" calcMode="linear" keyTimes="0;1" values="0 0;0 10.024899408284025" begin="0s" dur="0.8547008547008548s"></animateTransform>

</g><g>
<path d="M0 456.23734911242605 L2088 456.23734911242605"></path>
<animateTransform attributeName="transform" type="translate" repeatCount="indefinite" calcMode="linear" keyTimes="0;1" values="0 0;0 15.037349112426035" begin="0s" dur="0.8547008547008548s"></animateTransform>

</g><g>
<path d="M0 471.2746982248521 L2088 471.2746982248521"></path>
<animateTransform attributeName="transform" type="translate" repeatCount="indefinite" calcMode="linear" keyTimes="0;1" values="0 0;0 20.049798816568046" begin="0s" dur="0.8547008547008548s"></animateTransform>

</g><g>
<path d="M0 491.32449704142016 L2088 491.32449704142016"></path>
<animateTransform attributeName="transform" type="translate" repeatCount="indefinite" calcMode="linear" keyTimes="0;1" values="0 0;0 25.062248520710057" begin="0s" dur="0.8547008547008548s"></animateTransform>

</g><g>
<path d="M0 516.3867455621303 L2088 516.3867455621303"></path>
<animateTransform attributeName="transform" type="translate" repeatCount="indefinite" calcMode="linear" keyTimes="0;1" values="0 0;0 30.074698224852067" begin="0s" dur="0.8547008547008548s"></animateTransform>

</g><g>
<path d="M0 546.4614437869824 L2088 546.4614437869824"></path>
<animateTransform attributeName="transform" type="translate" repeatCount="indefinite" calcMode="linear" keyTimes="0;1" values="0 0;0 35.08714792899408" begin="0s" dur="0.8547008547008548s"></animateTransform>

</g><g>
<path d="M0 581.5485917159765 L2088 581.5485917159765"></path>
<animateTransform attributeName="transform" type="translate" repeatCount="indefinite" calcMode="linear" keyTimes="0;1" values="0 0;0 40.09959763313609" begin="0s" dur="0.8547008547008548s"></animateTransform>

</g><g>
<path d="M0 621.6481893491126 L2088 621.6481893491126"></path>
<animateTransform attributeName="transform" type="translate" repeatCount="indefinite" calcMode="linear" keyTimes="0;1" values="0 0;0 45.112047337278106" begin="0s" dur="0.8547008547008548s"></animateTransform>

</g><g>
<path d="M0 666.7602366863907 L2088 666.7602366863907"></path>
<animateTransform attributeName="transform" type="translate" repeatCount="indefinite" calcMode="linear" keyTimes="0;1" values="0 0;0 50.12449704142012" begin="0s" dur="0.8547008547008548s"></animateTransform>

</g><g>
<path d="M0 716.8847337278108 L2088 716.8847337278108"></path>
<animateTransform attributeName="transform" type="translate" repeatCount="indefinite" calcMode="linear" keyTimes="0;1" values="0 0;0 55.136946745562135" begin="0s" dur="0.8547008547008548s"></animateTransform>

</g><g>
<path d="M0 772.021680473373 L2088 772.021680473373"></path>
<animateTransform attributeName="transform" type="translate" repeatCount="indefinite" calcMode="linear" keyTimes="0;1" values="0 0;0 60.14939644970414" begin="0s" dur="0.8547008547008548s"></animateTransform>

</g><g>
<path d="M0 832.1710769230771 L2088 832.1710769230771"></path>
<animateTransform attributeName="transform" type="translate" repeatCount="indefinite" calcMode="linear" keyTimes="0;1" values="0 0;0 65.16184615384616" begin="0s" dur="0.8547008547008548s"></animateTransform>

</g><g>
<path d="M0 897.3329230769232 L2088 897.3329230769232"></path>
<animateTransform attributeName="transform" type="translate" repeatCount="indefinite" calcMode="linear" keyTimes="0;1" values="0 0;0 70.17429585798817" begin="0s" dur="0.8547008547008548s"></animateTransform>

</g><g>
<path d="M0 967.5072189349114 L2088 967.5072189349114"></path>
<animateTransform attributeName="transform" type="translate" repeatCount="indefinite" calcMode="linear" keyTimes="0;1" values="0 0;0 75.18674556213018" begin="0s" dur="0.8547008547008548s"></animateTransform>

</g><g>
<path d="M0 1042.6939644970416 L2088 1042.6939644970416"></path>
<animateTransform attributeName="transform" type="translate" repeatCount="indefinite" calcMode="linear" keyTimes="0;1" values="0 0;0 80.1991952662722" begin="0s" dur="0.8547008547008548s"></animateTransform>

</g><g>
<path d="M0 1122.8931597633139 L2088 1122.8931597633139"></path>
<animateTransform attributeName="transform" type="translate" repeatCount="indefinite" calcMode="linear" keyTimes="0;1" values="0 0;0 85.21164497041421" begin="0s" dur="0.8547008547008548s"></animateTransform>

</g><rect x="0" y="0" width="2088" height="1103" fill="url(#fg-lg-0.4566107581834866)"></rect></g>
</svg>