<?xml version="1.0" encoding="utf-8"?>
<svg xmlns="http://www.w3.org/2000/svg" xmlns:xlink="http://www.w3.org/1999/xlink" style="margin: auto; background: rgb(221, 221, 221); display: block; z-index: 1; position: relative; shape-rendering: auto;" width="2815" height="1815" preserveAspectRatio="xMidYMid" viewBox="0 0 2815 1815">
<g transform="translate(1407.5,907.5) scale(1,1) translate(-1407.5,-907.5)"><defs>
<linearGradient id="lg-0.9547632134627824" x1="0" x2="0" y1="0" y2="1">
  <stop stop-color="#f6f9fc" offset="0.4"></stop>
  <stop stop-color="#f6f9fc" offset="0.7"></stop>
  <stop stop-color="#f6f9fc" offset="1"></stop>
</linearGradient>
<linearGradient id="fg-lg-0.9547632134627824" x1="0" x2="0" y1="0" y2="1">
  <stop stop-color="#f6f9fc" stop-opacity="1" offset="0.4"></stop>
  <stop stop-color="#f6f9fc" stop-opacity="0.66" offset="0.7"></stop>
  <stop stop-color="#f6f9fc" stop-opacity="0" offset="1"></stop>
</linearGradient>
<style type="text/css">
  path { fill: none; stroke: #92eac0; stroke-width: 2px }
</style>
</defs>
<rect x="0" y="0" width="2815" height="1815" fill="url(#lg-0.9547632134627824)"></rect><path d="M0 726 L-19705 1815"></path><path d="M21.653846153846153 726 L-19380.19230769231 1815"></path><path d="M43.30769230769231 726 L-19055.384615384617 1815"></path><path d="M64.96153846153847 726 L-18730.576923076922 1815"></path><path d="M86.61538461538461 726 L-18405.76923076923 1815"></path><path d="M108.26923076923077 726 L-18080.96153846154 1815"></path><path d="M129.92307692307693 726 L-17756.153846153848 1815"></path><path d="M151.57692307692307 726 L-17431.346153846152 1815"></path><path d="M173.23076923076923 726 L-17106.53846153846 1815"></path><path d="M194.8846153846154 726 L-16781.73076923077 1815"></path><path d="M216.53846153846155 726 L-16456.923076923078 1815"></path><path d="M238.19230769230768 726 L-16132.115384615385 1815"></path><path d="M259.84615384615387 726 L-15807.307692307691 1815"></path><path d="M281.5 726 L-15482.5 1815"></path><path d="M303.15384615384613 726 L-15157.692307692309 1815"></path><path d="M324.8076923076923 726 L-14832.884615384615 1815"></path><path d="M346.46153846153845 726 L-14508.076923076922 1815"></path><path d="M368.11538461538464 726 L-14183.26923076923 1815"></path><path d="M389.7692307692308 726 L-13858.461538461539 1815"></path><path d="M411.4230769230769 726 L-13533.653846153846 1815"></path><path d="M433.0769230769231 726 L-13208.846153846154 1815"></path><path d="M454.7307692307692 726 L-12884.038461538461 1815"></path><path d="M476.38461538461536 726 L-12559.23076923077 1815"></path><path d="M498.03846153846155 726 L-12234.423076923078 1815"></path><path d="M519.6923076923077 726 L-11909.615384615385 1815"></path><path d="M541.3461538461538 726 L-11584.807692307691 1815"></path><path d="M563 726 L-11260 1815"></path><path d="M584.6538461538462 726 L-10935.192307692309 1815"></path><path d="M606.3076923076923 726 L-10610.384615384615 1815"></path><path d="M627.9615384615385 726 L-10285.576923076924 1815"></path><path d="M649.6153846153846 726 L-9960.76923076923 1815"></path><path d="M671.2692307692307 726 L-9635.961538461539 1815"></path><path d="M692.9230769230769 726 L-9311.153846153846 1815"></path><path d="M714.5769230769231 726 L-8986.346153846154 1815"></path><path d="M736.2307692307693 726 L-8661.538461538461 1815"></path><path d="M757.8846153846154 726 L-8336.73076923077 1815"></path><path d="M779.5384615384615 726 L-8011.923076923076 1815"></path><path d="M801.1923076923077 726 L-7687.115384615385 1815"></path><path d="M822.8461538461538 726 L-7362.3076923076915 1815"></path><path d="M844.5 726 L-7037.5 1815"></path><path d="M866.1538461538462 726 L-6712.6923076923085 1815"></path><path d="M887.8076923076923 726 L-6387.884615384615 1815"></path><path d="M909.4615384615385 726 L-6063.076923076924 1815"></path><path d="M931.1153846153846 726 L-5738.2692307692305 1815"></path><path d="M952.7692307692307 726 L-5413.461538461539 1815"></path><path d="M974.4230769230769 726 L-5088.653846153846 1815"></path><path d="M996.0769230769231 726 L-4763.846153846154 1815"></path><path d="M1017.7307692307693 726 L-4439.038461538461 1815"></path><path d="M1039.3846153846155 726 L-4114.2307692307695 1815"></path><path d="M1061.0384615384614 726 L-3789.423076923076 1815"></path><path d="M1082.6923076923076 726 L-3464.6153846153848 1815"></path><path d="M1104.3461538461538 726 L-3139.8076923076915 1815"></path><path d="M1126 726 L-2815 1815"></path><path d="M1147.6538461538462 726 L-2490.1923076923085 1815"></path><path d="M1169.3076923076924 726 L-2165.384615384617 1815"></path><path d="M1190.9615384615386 726 L-1840.576923076922 1815"></path><path d="M1212.6153846153845 726 L-1515.7692307692305 1815"></path><path d="M1234.2692307692307 726 L-1190.961538461539 1815"></path><path d="M1255.923076923077 726 L-866.1538461538476 1815"></path><path d="M1277.576923076923 726 L-541.3461538461524 1815"></path><path d="M1299.2307692307693 726 L-216.53846153846098 1815"></path><path d="M1320.8846153846155 726 L108.26923076923049 1815"></path><path d="M1342.5384615384614 726 L433.07692307692196 1815"></path><path d="M1364.1923076923076 726 L757.8846153846171 1815"></path><path d="M1385.8461538461538 726 L1082.6923076923085 1815"></path><path d="M1407.5 726 L1407.5 1815"></path><path d="M1429.1538461538462 726 L1732.3076923076915 1815"></path><path d="M1450.8076923076924 726 L2057.115384615383 1815"></path><path d="M1472.4615384615386 726 L2381.923076923078 1815"></path><path d="M1494.1153846153845 726 L2706.7307692307695 1815"></path><path d="M1515.7692307692307 726 L3031.538461538461 1815"></path><path d="M1537.423076923077 726 L3356.3461538461524 1815"></path><path d="M1559.076923076923 726 L3681.1538461538476 1815"></path><path d="M1580.7307692307693 726 L4005.961538461539 1815"></path><path d="M1602.3846153846155 726 L4330.7692307692305 1815"></path><path d="M1624.0384615384614 726 L4655.576923076922 1815"></path><path d="M1645.6923076923076 726 L4980.384615384617 1815"></path><path d="M1667.3461538461538 726 L5305.1923076923085 1815"></path><path d="M1689 726 L5630 1815"></path><path d="M1710.6538461538462 726 L5954.8076923076915 1815"></path><path d="M1732.3076923076924 726 L6279.615384615383 1815"></path><path d="M1753.9615384615386 726 L6604.423076923078 1815"></path><path d="M1775.6153846153845 726 L6929.2307692307695 1815"></path><path d="M1797.2692307692307 726 L7254.038461538461 1815"></path><path d="M1818.923076923077 726 L7578.846153846152 1815"></path><path d="M1840.576923076923 726 L7903.653846153848 1815"></path><path d="M1862.2307692307693 726 L8228.461538461539 1815"></path><path d="M1883.8846153846155 726 L8553.26923076923 1815"></path><path d="M1905.5384615384614 726 L8878.076923076922 1815"></path><path d="M1927.1923076923076 726 L9202.884615384617 1815"></path><path d="M1948.8461538461538 726 L9527.692307692309 1815"></path><path d="M1970.5 726 L9852.5 1815"></path><path d="M1992.1538461538462 726 L10177.307692307691 1815"></path><path d="M2013.8076923076924 726 L10502.115384615383 1815"></path><path d="M2035.4615384615386 726 L10826.923076923078 1815"></path><path d="M2057.1153846153848 726 L11151.73076923077 1815"></path><path d="M2078.769230769231 726 L11476.538461538461 1815"></path><path d="M2100.423076923077 726 L11801.346153846152 1815"></path><path d="M2122.076923076923 726 L12126.153846153848 1815"></path><path d="M2143.730769230769 726 L12450.961538461539 1815"></path><path d="M2165.3846153846152 726 L12775.76923076923 1815"></path><path d="M2187.0384615384614 726 L13100.576923076922 1815"></path><path d="M2208.6923076923076 726 L13425.384615384617 1815"></path><path d="M2230.346153846154 726 L13750.192307692305 1815"></path><path d="M2252 726 L14075 1815"></path><path d="M2273.653846153846 726 L14399.807692307695 1815"></path><path d="M2295.3076923076924 726 L14724.615384615383 1815"></path><path d="M2316.9615384615386 726 L15049.423076923078 1815"></path><path d="M2338.6153846153848 726 L15374.230769230766 1815"></path><path d="M2360.269230769231 726 L15699.038461538461 1815"></path><path d="M2381.923076923077 726 L16023.846153846156 1815"></path><path d="M2403.576923076923 726 L16348.653846153844 1815"></path><path d="M2425.230769230769 726 L16673.46153846154 1815"></path><path d="M2446.8846153846152 726 L16998.269230769234 1815"></path><path d="M2468.5384615384614 726 L17323.076923076922 1815"></path><path d="M2490.1923076923076 726 L17647.884615384617 1815"></path><path d="M2511.846153846154 726 L17972.692307692305 1815"></path><path d="M2533.5 726 L18297.5 1815"></path><path d="M2555.153846153846 726 L18622.307692307695 1815"></path><path d="M2576.8076923076924 726 L18947.115384615383 1815"></path><path d="M2598.4615384615386 726 L19271.923076923078 1815"></path><path d="M2620.1153846153848 726 L19596.730769230766 1815"></path><path d="M2641.769230769231 726 L19921.53846153846 1815"></path><path d="M2663.423076923077 726 L20246.346153846156 1815"></path><path d="M2685.076923076923 726 L20571.153846153844 1815"></path><path d="M2706.730769230769 726 L20895.96153846154 1815"></path><path d="M2728.3846153846152 726 L21220.769230769234 1815"></path><path d="M2750.0384615384614 726 L21545.576923076922 1815"></path><path d="M2771.6923076923076 726 L21870.384615384617 1815"></path><path d="M2793.346153846154 726 L22195.192307692305 1815"></path><path d="M2815 726 L22520 1815"></path><g>
<path d="M0 726 L2815 726"></path>
<animateTransform attributeName="transform" type="translate" repeatCount="indefinite" calcMode="linear" keyTimes="0;1" values="0 0;0 8.248047337278107" begin="0s" dur="0.8547008547008548s"></animateTransform>

</g><g>
<path d="M0 734.2480473372781 L2815 734.2480473372781"></path>
<animateTransform attributeName="transform" type="translate" repeatCount="indefinite" calcMode="linear" keyTimes="0;1" values="0 0;0 16.49609467455621" begin="0s" dur="0.8547008547008548s"></animateTransform>

</g><g>
<path d="M0 750.7441420118342 L2815 750.7441420118342"></path>
<animateTransform attributeName="transform" type="translate" repeatCount="indefinite" calcMode="linear" keyTimes="0;1" values="0 0;0 24.74414201183432" begin="0s" dur="0.8547008547008548s"></animateTransform>

</g><g>
<path d="M0 775.4882840236686 L2815 775.4882840236686"></path>
<animateTransform attributeName="transform" type="translate" repeatCount="indefinite" calcMode="linear" keyTimes="0;1" values="0 0;0 32.99218934911243" begin="0s" dur="0.8547008547008548s"></animateTransform>

</g><g>
<path d="M0 808.480473372781 L2815 808.480473372781"></path>
<animateTransform attributeName="transform" type="translate" repeatCount="indefinite" calcMode="linear" keyTimes="0;1" values="0 0;0 41.24023668639054" begin="0s" dur="0.8547008547008548s"></animateTransform>

</g><g>
<path d="M0 849.7207100591716 L2815 849.7207100591716"></path>
<animateTransform attributeName="transform" type="translate" repeatCount="indefinite" calcMode="linear" keyTimes="0;1" values="0 0;0 49.48828402366865" begin="0s" dur="0.8547008547008548s"></animateTransform>

</g><g>
<path d="M0 899.2089940828401 L2815 899.2089940828401"></path>
<animateTransform attributeName="transform" type="translate" repeatCount="indefinite" calcMode="linear" keyTimes="0;1" values="0 0;0 57.73633136094675" begin="0s" dur="0.8547008547008548s"></animateTransform>

</g><g>
<path d="M0 956.9453254437869 L2815 956.9453254437869"></path>
<animateTransform attributeName="transform" type="translate" repeatCount="indefinite" calcMode="linear" keyTimes="0;1" values="0 0;0 65.98437869822486" begin="0s" dur="0.8547008547008548s"></animateTransform>

</g><g>
<path d="M0 1022.9297041420118 L2815 1022.9297041420118"></path>
<animateTransform attributeName="transform" type="translate" repeatCount="indefinite" calcMode="linear" keyTimes="0;1" values="0 0;0 74.23242603550297" begin="0s" dur="0.8547008547008548s"></animateTransform>

</g><g>
<path d="M0 1097.1621301775149 L2815 1097.1621301775149"></path>
<animateTransform attributeName="transform" type="translate" repeatCount="indefinite" calcMode="linear" keyTimes="0;1" values="0 0;0 82.48047337278108" begin="0s" dur="0.8547008547008548s"></animateTransform>

</g><g>
<path d="M0 1179.642603550296 L2815 1179.642603550296"></path>
<animateTransform attributeName="transform" type="translate" repeatCount="indefinite" calcMode="linear" keyTimes="0;1" values="0 0;0 90.72852071005919" begin="0s" dur="0.8547008547008548s"></animateTransform>

</g><g>
<path d="M0 1270.3711242603551 L2815 1270.3711242603551"></path>
<animateTransform attributeName="transform" type="translate" repeatCount="indefinite" calcMode="linear" keyTimes="0;1" values="0 0;0 98.9765680473373" begin="0s" dur="0.8547008547008548s"></animateTransform>

</g><g>
<path d="M0 1369.3476923076923 L2815 1369.3476923076923"></path>
<animateTransform attributeName="transform" type="translate" repeatCount="indefinite" calcMode="linear" keyTimes="0;1" values="0 0;0 107.2246153846154" begin="0s" dur="0.8547008547008548s"></animateTransform>

</g><g>
<path d="M0 1476.5723076923077 L2815 1476.5723076923077"></path>
<animateTransform attributeName="transform" type="translate" repeatCount="indefinite" calcMode="linear" keyTimes="0;1" values="0 0;0 115.47266272189351" begin="0s" dur="0.8547008547008548s"></animateTransform>

</g><g>
<path d="M0 1592.0449704142013 L2815 1592.0449704142013"></path>
<animateTransform attributeName="transform" type="translate" repeatCount="indefinite" calcMode="linear" keyTimes="0;1" values="0 0;0 123.72071005917161" begin="0s" dur="0.8547008547008548s"></animateTransform>

</g><g>
<path d="M0 1715.7656804733729 L2815 1715.7656804733729"></path>
<animateTransform attributeName="transform" type="translate" repeatCount="indefinite" calcMode="linear" keyTimes="0;1" values="0 0;0 131.96875739644972" begin="0s" dur="0.8547008547008548s"></animateTransform>

</g><g>
<path d="M0 1847.7344378698226 L2815 1847.7344378698226"></path>
<animateTransform attributeName="transform" type="translate" repeatCount="indefinite" calcMode="linear" keyTimes="0;1" values="0 0;0 140.21680473372783" begin="0s" dur="0.8547008547008548s"></animateTransform>

</g><rect x="0" y="0" width="2815" height="1815" fill="url(#fg-lg-0.9547632134627824)"></rect></g>
</svg>