<?xml version="1.0" encoding="utf-8"?>
<svg xmlns="http://www.w3.org/2000/svg" xmlns:xlink="http://www.w3.org/1999/xlink" style="margin: auto; background: rgb(221, 221, 221); display: block; z-index: 1; position: relative; shape-rendering: auto;" width="1048" height="1226" preserveAspectRatio="xMidYMid" viewBox="0 0 1048 1226">
<g transform="translate(524,613) scale(1,1) translate(-524,-613)"><defs>
<linearGradient id="lg-0.3701195713932717" x1="0" x2="0" y1="0" y2="1">
  <stop stop-color="#f6f9fc" offset="0.4"></stop>
  <stop stop-color="#f6f9fc" offset="0.7"></stop>
  <stop stop-color="#f6f9fc" offset="1"></stop>
</linearGradient>
<linearGradient id="fg-lg-0.3701195713932717" x1="0" x2="0" y1="0" y2="1">
  <stop stop-color="#f6f9fc" stop-opacity="1" offset="0.4"></stop>
  <stop stop-color="#f6f9fc" stop-opacity="0.66" offset="0.7"></stop>
  <stop stop-color="#f6f9fc" stop-opacity="0" offset="1"></stop>
</linearGradient>
<style type="text/css">
  path { fill: none; stroke: #92eac0; stroke-width: 2px }
</style>
</defs>
<rect x="0" y="0" width="1048" height="1226" fill="url(#lg-0.3701195713932717)"></rect><path d="M0 490.40000000000003 L-7336 1226"></path><path d="M8.061538461538461 490.40000000000003 L-7215.076923076923 1226"></path><path d="M16.123076923076923 490.40000000000003 L-7094.153846153846 1226"></path><path d="M24.184615384615384 490.40000000000003 L-6973.2307692307695 1226"></path><path d="M32.246153846153845 490.40000000000003 L-6852.307692307692 1226"></path><path d="M40.30769230769231 490.40000000000003 L-6731.384615384615 1226"></path><path d="M48.36923076923077 490.40000000000003 L-6610.461538461538 1226"></path><path d="M56.43076923076923 490.40000000000003 L-6489.538461538462 1226"></path><path d="M64.49230769230769 490.40000000000003 L-6368.615384615385 1226"></path><path d="M72.55384615384615 490.40000000000003 L-6247.692307692308 1226"></path><path d="M80.61538461538461 490.40000000000003 L-6126.7692307692305 1226"></path><path d="M88.67692307692307 490.40000000000003 L-6005.846153846154 1226"></path><path d="M96.73846153846154 490.40000000000003 L-5884.923076923077 1226"></path><path d="M104.8 490.40000000000003 L-5764 1226"></path><path d="M112.86153846153846 490.40000000000003 L-5643.076923076923 1226"></path><path d="M120.92307692307692 490.40000000000003 L-5522.153846153846 1226"></path><path d="M128.98461538461538 490.40000000000003 L-5401.2307692307695 1226"></path><path d="M137.04615384615386 490.40000000000003 L-5280.307692307692 1226"></path><path d="M145.1076923076923 490.40000000000003 L-5159.384615384615 1226"></path><path d="M153.16923076923078 490.40000000000003 L-5038.461538461539 1226"></path><path d="M161.23076923076923 490.40000000000003 L-4917.538461538461 1226"></path><path d="M169.2923076923077 490.40000000000003 L-4796.615384615385 1226"></path><path d="M177.35384615384615 490.40000000000003 L-4675.692307692308 1226"></path><path d="M185.41538461538462 490.40000000000003 L-4554.7692307692305 1226"></path><path d="M193.47692307692307 490.40000000000003 L-4433.846153846154 1226"></path><path d="M201.53846153846155 490.40000000000003 L-4312.923076923077 1226"></path><path d="M209.6 490.40000000000003 L-4192 1226"></path><path d="M217.66153846153847 490.40000000000003 L-4071.076923076923 1226"></path><path d="M225.72307692307692 490.40000000000003 L-3950.153846153846 1226"></path><path d="M233.7846153846154 490.40000000000003 L-3829.230769230769 1226"></path><path d="M241.84615384615384 490.40000000000003 L-3708.3076923076924 1226"></path><path d="M249.90769230769232 490.40000000000003 L-3587.3846153846152 1226"></path><path d="M257.96923076923076 490.40000000000003 L-3466.4615384615386 1226"></path><path d="M266.03076923076924 490.40000000000003 L-3345.5384615384614 1226"></path><path d="M274.0923076923077 490.40000000000003 L-3224.6153846153848 1226"></path><path d="M282.15384615384613 490.40000000000003 L-3103.6923076923076 1226"></path><path d="M290.2153846153846 490.40000000000003 L-2982.7692307692305 1226"></path><path d="M298.2769230769231 490.40000000000003 L-2861.8461538461543 1226"></path><path d="M306.33846153846156 490.40000000000003 L-2740.923076923077 1226"></path><path d="M314.4 490.40000000000003 L-2620 1226"></path><path d="M322.46153846153845 490.40000000000003 L-2499.076923076923 1226"></path><path d="M330.5230769230769 490.40000000000003 L-2378.1538461538457 1226"></path><path d="M338.5846153846154 490.40000000000003 L-2257.2307692307695 1226"></path><path d="M346.6461538461538 490.40000000000003 L-2136.3076923076924 1226"></path><path d="M354.7076923076923 490.40000000000003 L-2015.3846153846152 1226"></path><path d="M362.7692307692308 490.40000000000003 L-1894.461538461538 1226"></path><path d="M370.83076923076925 490.40000000000003 L-1773.538461538462 1226"></path><path d="M378.89230769230767 490.40000000000003 L-1652.6153846153848 1226"></path><path d="M386.95384615384614 490.40000000000003 L-1531.6923076923076 1226"></path><path d="M395.0153846153846 490.40000000000003 L-1410.7692307692305 1226"></path><path d="M403.0769230769231 490.40000000000003 L-1289.8461538461543 1226"></path><path d="M411.1384615384615 490.40000000000003 L-1168.9230769230771 1226"></path><path d="M419.2 490.40000000000003 L-1048 1226"></path><path d="M427.26153846153846 490.40000000000003 L-927.0769230769229 1226"></path><path d="M435.32307692307694 490.40000000000003 L-806.1538461538457 1226"></path><path d="M443.38461538461536 490.40000000000003 L-685.2307692307695 1226"></path><path d="M451.44615384615383 490.40000000000003 L-564.3076923076924 1226"></path><path d="M459.5076923076923 490.40000000000003 L-443.38461538461524 1226"></path><path d="M467.5692307692308 490.40000000000003 L-322.4615384615381 1226"></path><path d="M475.6307692307692 490.40000000000003 L-201.5384615384619 1226"></path><path d="M483.6923076923077 490.40000000000003 L-80.61538461538476 1226"></path><path d="M491.75384615384615 490.40000000000003 L40.30769230769238 1226"></path><path d="M499.81538461538463 490.40000000000003 L161.2307692307695 1226"></path><path d="M507.87692307692305 490.40000000000003 L282.15384615384573 1226"></path><path d="M515.9384615384615 490.40000000000003 L403.07692307692287 1226"></path><path d="M524 490.40000000000003 L524 1226"></path><path d="M532.0615384615385 490.40000000000003 L644.9230769230771 1226"></path><path d="M540.123076923077 490.40000000000003 L765.8461538461543 1226"></path><path d="M548.1846153846154 490.40000000000003 L886.7692307692305 1226"></path><path d="M556.2461538461539 490.40000000000003 L1007.6923076923085 1226"></path><path d="M564.3076923076923 490.40000000000003 L1128.6153846153848 1226"></path><path d="M572.3692307692307 490.40000000000003 L1249.538461538461 1226"></path><path d="M580.4307692307692 490.40000000000003 L1370.461538461539 1226"></path><path d="M588.4923076923077 490.40000000000003 L1491.3846153846152 1226"></path><path d="M596.5538461538462 490.40000000000003 L1612.3076923076915 1226"></path><path d="M604.6153846153846 490.40000000000003 L1733.2307692307695 1226"></path><path d="M612.6769230769231 490.40000000000003 L1854.1538461538457 1226"></path><path d="M620.7384615384616 490.40000000000003 L1975.0769230769238 1226"></path><path d="M628.8 490.40000000000003 L2096 1226"></path><path d="M636.8615384615384 490.40000000000003 L2216.923076923076 1226"></path><path d="M644.9230769230769 490.40000000000003 L2337.8461538461543 1226"></path><path d="M652.9846153846154 490.40000000000003 L2458.7692307692305 1226"></path><path d="M661.0461538461539 490.40000000000003 L2579.6923076923085 1226"></path><path d="M669.1076923076923 490.40000000000003 L2700.6153846153848 1226"></path><path d="M677.1692307692308 490.40000000000003 L2821.538461538461 1226"></path><path d="M685.2307692307693 490.40000000000003 L2942.461538461539 1226"></path><path d="M693.2923076923076 490.40000000000003 L3063.3846153846152 1226"></path><path d="M701.3538461538461 490.40000000000003 L3184.3076923076915 1226"></path><path d="M709.4153846153846 490.40000000000003 L3305.2307692307695 1226"></path><path d="M717.4769230769231 490.40000000000003 L3426.1538461538457 1226"></path><path d="M725.5384615384615 490.40000000000003 L3547.076923076924 1226"></path><path d="M733.6 490.40000000000003 L3668 1226"></path><path d="M741.6615384615385 490.40000000000003 L3788.923076923076 1226"></path><path d="M749.723076923077 490.40000000000003 L3909.8461538461543 1226"></path><path d="M757.7846153846153 490.40000000000003 L4030.7692307692305 1226"></path><path d="M765.8461538461538 490.40000000000003 L4151.6923076923085 1226"></path><path d="M773.9076923076923 490.40000000000003 L4272.615384615385 1226"></path><path d="M781.9692307692308 490.40000000000003 L4393.538461538461 1226"></path><path d="M790.0307692307692 490.40000000000003 L4514.461538461539 1226"></path><path d="M798.0923076923077 490.40000000000003 L4635.384615384615 1226"></path><path d="M806.1538461538462 490.40000000000003 L4756.3076923076915 1226"></path><path d="M814.2153846153847 490.40000000000003 L4877.2307692307695 1226"></path><path d="M822.276923076923 490.40000000000003 L4998.153846153846 1226"></path><path d="M830.3384615384615 490.40000000000003 L5119.076923076924 1226"></path><path d="M838.4 490.40000000000003 L5240 1226"></path><path d="M846.4615384615385 490.40000000000003 L5360.923076923076 1226"></path><path d="M854.5230769230769 490.40000000000003 L5481.846153846154 1226"></path><path d="M862.5846153846154 490.40000000000003 L5602.7692307692305 1226"></path><path d="M870.6461538461539 490.40000000000003 L5723.6923076923085 1226"></path><path d="M878.7076923076924 490.40000000000003 L5844.615384615385 1226"></path><path d="M886.7692307692307 490.40000000000003 L5965.538461538461 1226"></path><path d="M894.8307692307692 490.40000000000003 L6086.461538461539 1226"></path><path d="M902.8923076923077 490.40000000000003 L6207.384615384615 1226"></path><path d="M910.9538461538461 490.40000000000003 L6328.3076923076915 1226"></path><path d="M919.0153846153846 490.40000000000003 L6449.2307692307695 1226"></path><path d="M927.0769230769231 490.40000000000003 L6570.153846153846 1226"></path><path d="M935.1384615384616 490.40000000000003 L6691.076923076924 1226"></path><path d="M943.2 490.40000000000003 L6812 1226"></path><path d="M951.2615384615384 490.40000000000003 L6932.923076923076 1226"></path><path d="M959.3230769230769 490.40000000000003 L7053.846153846154 1226"></path><path d="M967.3846153846154 490.40000000000003 L7174.7692307692305 1226"></path><path d="M975.4461538461538 490.40000000000003 L7295.6923076923085 1226"></path><path d="M983.5076923076923 490.40000000000003 L7416.615384615385 1226"></path><path d="M991.5692307692308 490.40000000000003 L7537.538461538461 1226"></path><path d="M999.6307692307693 490.40000000000003 L7658.461538461539 1226"></path><path d="M1007.6923076923077 490.40000000000003 L7779.384615384615 1226"></path><path d="M1015.7538461538461 490.40000000000003 L7900.3076923076915 1226"></path><path d="M1023.8153846153846 490.40000000000003 L8021.2307692307695 1226"></path><path d="M1031.876923076923 490.40000000000003 L8142.153846153846 1226"></path><path d="M1039.9384615384615 490.40000000000003 L8263.076923076924 1226"></path><path d="M1048 490.40000000000003 L8384 1226"></path><g>
<path d="M0 490.40000000000003 L1048 490.40000000000003"></path>
<animateTransform attributeName="transform" type="translate" repeatCount="indefinite" calcMode="linear" keyTimes="0;1" values="0 0;0 5.5714082840236685" begin="0s" dur="0.8547008547008548s"></animateTransform>

</g><g>
<path d="M0 495.9714082840237 L1048 495.9714082840237"></path>
<animateTransform attributeName="transform" type="translate" repeatCount="indefinite" calcMode="linear" keyTimes="0;1" values="0 0;0 11.142816568047337" begin="0s" dur="0.8547008547008548s"></animateTransform>

</g><g>
<path d="M0 507.11422485207106 L1048 507.11422485207106"></path>
<animateTransform attributeName="transform" type="translate" repeatCount="indefinite" calcMode="linear" keyTimes="0;1" values="0 0;0 16.714224852071006" begin="0s" dur="0.8547008547008548s"></animateTransform>

</g><g>
<path d="M0 523.828449704142 L1048 523.828449704142"></path>
<animateTransform attributeName="transform" type="translate" repeatCount="indefinite" calcMode="linear" keyTimes="0;1" values="0 0;0 22.285633136094674" begin="0s" dur="0.8547008547008548s"></animateTransform>

</g><g>
<path d="M0 546.1140828402367 L1048 546.1140828402367"></path>
<animateTransform attributeName="transform" type="translate" repeatCount="indefinite" calcMode="linear" keyTimes="0;1" values="0 0;0 27.857041420118343" begin="0s" dur="0.8547008547008548s"></animateTransform>

</g><g>
<path d="M0 573.971124260355 L1048 573.971124260355"></path>
<animateTransform attributeName="transform" type="translate" repeatCount="indefinite" calcMode="linear" keyTimes="0;1" values="0 0;0 33.42844970414201" begin="0s" dur="0.8547008547008548s"></animateTransform>

</g><g>
<path d="M0 607.3995739644971 L1048 607.3995739644971"></path>
<animateTransform attributeName="transform" type="translate" repeatCount="indefinite" calcMode="linear" keyTimes="0;1" values="0 0;0 38.99985798816568" begin="0s" dur="0.8547008547008548s"></animateTransform>

</g><g>
<path d="M0 646.3994319526628 L1048 646.3994319526628"></path>
<animateTransform attributeName="transform" type="translate" repeatCount="indefinite" calcMode="linear" keyTimes="0;1" values="0 0;0 44.57126627218935" begin="0s" dur="0.8547008547008548s"></animateTransform>

</g><g>
<path d="M0 690.9706982248522 L1048 690.9706982248522"></path>
<animateTransform attributeName="transform" type="translate" repeatCount="indefinite" calcMode="linear" keyTimes="0;1" values="0 0;0 50.14267455621302" begin="0s" dur="0.8547008547008548s"></animateTransform>

</g><g>
<path d="M0 741.1133727810652 L1048 741.1133727810652"></path>
<animateTransform attributeName="transform" type="translate" repeatCount="indefinite" calcMode="linear" keyTimes="0;1" values="0 0;0 55.714082840236685" begin="0s" dur="0.8547008547008548s"></animateTransform>

</g><g>
<path d="M0 796.8274556213019 L1048 796.8274556213019"></path>
<animateTransform attributeName="transform" type="translate" repeatCount="indefinite" calcMode="linear" keyTimes="0;1" values="0 0;0 61.28549112426035" begin="0s" dur="0.8547008547008548s"></animateTransform>

</g><g>
<path d="M0 858.1129467455622 L1048 858.1129467455622"></path>
<animateTransform attributeName="transform" type="translate" repeatCount="indefinite" calcMode="linear" keyTimes="0;1" values="0 0;0 66.85689940828402" begin="0s" dur="0.8547008547008548s"></animateTransform>

</g><g>
<path d="M0 924.9698461538462 L1048 924.9698461538462"></path>
<animateTransform attributeName="transform" type="translate" repeatCount="indefinite" calcMode="linear" keyTimes="0;1" values="0 0;0 72.4283076923077" begin="0s" dur="0.8547008547008548s"></animateTransform>

</g><g>
<path d="M0 997.398153846154 L1048 997.398153846154"></path>
<animateTransform attributeName="transform" type="translate" repeatCount="indefinite" calcMode="linear" keyTimes="0;1" values="0 0;0 77.99971597633137" begin="0s" dur="0.8547008547008548s"></animateTransform>

</g><g>
<path d="M0 1075.3978698224853 L1048 1075.3978698224853"></path>
<animateTransform attributeName="transform" type="translate" repeatCount="indefinite" calcMode="linear" keyTimes="0;1" values="0 0;0 83.57112426035505" begin="0s" dur="0.8547008547008548s"></animateTransform>

</g><g>
<path d="M0 1158.9689940828403 L1048 1158.9689940828403"></path>
<animateTransform attributeName="transform" type="translate" repeatCount="indefinite" calcMode="linear" keyTimes="0;1" values="0 0;0 89.14253254437872" begin="0s" dur="0.8547008547008548s"></animateTransform>

</g><g>
<path d="M0 1248.111526627219 L1048 1248.111526627219"></path>
<animateTransform attributeName="transform" type="translate" repeatCount="indefinite" calcMode="linear" keyTimes="0;1" values="0 0;0 94.7139408284024" begin="0s" dur="0.8547008547008548s"></animateTransform>

</g><rect x="0" y="0" width="1048" height="1226" fill="url(#fg-lg-0.3701195713932717)"></rect></g>
</svg>